<?xml version="1.0" encoding="utf-8"?>
<!-- Generator: Adobe Illustrator 18.0.0, SVG Export Plug-In . SVG Version: 6.00 Build 0)  -->
<!DOCTYPE svg PUBLIC "-//W3C//DTD SVG 1.1//EN" "http://www.w3.org/Graphics/SVG/1.1/DTD/svg11.dtd">
<svg version="1.1" id="Capa_1" xmlns="http://www.w3.org/2000/svg" xmlns:xlink="http://www.w3.org/1999/xlink" x="0px" y="0px"
	 viewBox="0 0 1132 335" enable-background="new 0 0 1132 335" xml:space="preserve">
<g>
	<g>
		<g>
			<path fill="#B2DAD5" d="M159.8,4.8c41.4,0,80.3,15.8,109.5,44.4c29.2,28.6,45.3,66.6,45.3,107.1s-16.1,78.5-45.3,107.1
				c-29.3,28.6-68.1,44.4-109.5,44.4s-80.3-15.8-109.5-44.4C21.1,234.8,5,196.8,5,156.3S21.1,77.8,50.3,49.2
				C79.6,20.6,118.5,4.8,159.8,4.8 M159.8-0.2C71.6-0.2,0,69.9,0,156.3s71.6,156.5,159.8,156.5s159.8-70.1,159.8-156.5
				S248.1-0.2,159.8-0.2L159.8-0.2z"/>
		</g>
		<ellipse fill="#B2DAD5" cx="159.8" cy="154.6" rx="130.1" ry="127.4"/>
		<path fill="#96806C" d="M92.6,34.4c-26,17-50.9,49-50.9,49l-6.3,10.4l2.7,15.7l42.7,9.4l6.3,13.5l32.3-1.9l6.3,11.6l3.9,6.2
			l7.9-20.5l-3.2-20.8h-16.2l-4.3-17.8l0.4-6.2l3.9-15.1l11-12.7l8.3-2.7l-31.9-23.2L92.6,34.4z"/>
		<polygon fill="#96806C" points="134.4,165.6 128.9,180.6 134.4,183.7 137.6,189.1 139.5,202.2 137.6,216.5 134.2,223.9 
			147.4,248.6 156.9,252.8 159.8,247.4 164.8,248.6 169.1,252.8 181.3,259.8 190.4,259.8 200.6,264.4 200.6,266.7 202.6,262.8 
			200.6,244.3 200.6,231.6 205.4,213.8 207,194.9 199.9,189.9 189.2,192.2 189.2,197.6 185.7,197.6 177,195.3 163.2,176.8 
			158.1,168.3 148.6,165.6 139.9,158.2 134.4,154.6 128.9,156.7 131.3,160.6 		"/>
		<path fill="#96806C" d="M218.9,41.1h12.9c0,0,29.2,19.9,32.7,24.6c3.5,4.6,7.5,10.8,9.9,16.6c2.4,5.8,0,11.9,0,11.9l-3.5,12
			l-18.9-5l-13,1.9l-9.1,6.6l-3.2,7.3h-5.9l-4.7-9.6L207,91.5l3.2-14.3l5.5-18.9l-8.7-12l-5.5-5.3v-7.2L218.9,41.1z"/>
	</g>
	<text transform="matrix(1.0213 0 0 1 355.4111 231.8965)"><tspan x="0" y="0" fill="#4C4C4C" font-family="'GrandHotel-Regular'" font-size="249.7924">Found</tspan><tspan x="509.6" y="0" fill="#B2DAD5" font-family="'GrandHotel-Regular'" font-size="249.7924">ess</tspan></text>
</g>
</svg>
